<?xml version="1.0" encoding="UTF-8"?>
<svg xmlns="http://www.w3.org/2000/svg" xmlns:xlink="http://www.w3.org/1999/xlink" viewBox="0 0 16 13" version="1.1" id="_CAR" preserveAspectRatio="xMidYMid meet">
<g id="surface1">
<path d="M 2.554688 7.195312 C 1.855469 7.195312 1.289062 7.792969 1.289062 8.53125 C 1.289062 8.589844 1.296875 8.644531 1.304688 8.699219 C 1.382812 9.355469 1.910156 9.867188 2.554688 9.867188 C 3.210938 9.867188 3.753906 9.328125 3.808594 8.644531 C 3.8125 8.605469 3.816406 8.570312 3.816406 8.53125 C 3.816406 7.792969 3.25 7.195312 2.554688 7.195312 Z M 1.921875 8.03125 L 2.179688 8.300781 C 2.160156 8.335938 2.144531 8.375 2.132812 8.417969 L 1.769531 8.417969 C 1.789062 8.273438 1.839844 8.140625 1.921875 8.03125 Z M 1.769531 8.648438 L 2.132812 8.648438 C 2.144531 8.691406 2.160156 8.726562 2.179688 8.765625 L 1.921875 9.039062 C 1.839844 8.925781 1.789062 8.792969 1.769531 8.648438 Z M 2.445312 9.359375 C 2.304688 9.339844 2.183594 9.28125 2.078125 9.199219 L 2.335938 8.925781 C 2.367188 8.949219 2.40625 8.964844 2.445312 8.976562 Z M 2.445312 8.085938 C 2.402344 8.097656 2.367188 8.113281 2.332031 8.136719 L 2.074219 7.863281 C 2.179688 7.777344 2.304688 7.722656 2.445312 7.703125 Z M 2.664062 7.703125 C 2.800781 7.722656 2.925781 7.777344 3.03125 7.863281 L 2.773438 8.136719 C 2.742188 8.113281 2.703125 8.097656 2.664062 8.085938 Z M 2.664062 9.359375 L 2.664062 8.976562 C 2.699219 8.964844 2.738281 8.949219 2.773438 8.925781 L 3.027344 9.199219 C 2.921875 9.28125 2.800781 9.339844 2.664062 9.359375 Z M 3.183594 9.039062 L 2.925781 8.765625 C 2.945312 8.726562 2.960938 8.691406 2.972656 8.648438 L 3.335938 8.648438 C 3.316406 8.792969 3.265625 8.925781 3.183594 9.039062 Z M 2.972656 8.417969 C 2.960938 8.375 2.945312 8.335938 2.929688 8.300781 L 3.183594 8.027344 C 3.265625 8.140625 3.316406 8.269531 3.335938 8.417969 Z M 2.972656 8.417969 "/>
<path d="M 13.171875 7.195312 C 12.476562 7.195312 11.914062 7.792969 11.914062 8.53125 C 11.914062 8.589844 11.914062 8.644531 11.921875 8.699219 C 12 9.355469 12.527344 9.867188 13.171875 9.867188 C 13.832031 9.867188 14.375 9.328125 14.429688 8.644531 C 14.429688 8.605469 14.433594 8.570312 14.433594 8.53125 C 14.433594 7.792969 13.867188 7.195312 13.171875 7.195312 Z M 12.539062 8.03125 L 12.796875 8.300781 C 12.777344 8.335938 12.761719 8.375 12.753906 8.417969 L 12.390625 8.417969 C 12.410156 8.273438 12.460938 8.140625 12.539062 8.03125 Z M 12.386719 8.648438 L 12.753906 8.648438 C 12.761719 8.691406 12.777344 8.726562 12.800781 8.765625 L 12.539062 9.039062 C 12.460938 8.925781 12.40625 8.792969 12.386719 8.648438 Z M 13.0625 9.359375 C 12.929688 9.339844 12.804688 9.28125 12.695312 9.199219 L 12.953125 8.925781 C 12.988281 8.949219 13.023438 8.964844 13.0625 8.976562 Z M 13.0625 8.085938 C 13.023438 8.097656 12.988281 8.113281 12.953125 8.136719 L 12.695312 7.863281 C 12.800781 7.777344 12.925781 7.722656 13.0625 7.703125 Z M 13.28125 7.703125 C 13.417969 7.722656 13.542969 7.777344 13.648438 7.863281 L 13.394531 8.136719 C 13.359375 8.113281 13.320312 8.097656 13.28125 8.085938 Z M 13.28125 9.359375 L 13.28125 8.976562 C 13.320312 8.964844 13.355469 8.949219 13.390625 8.925781 L 13.648438 9.199219 C 13.542969 9.28125 13.417969 9.339844 13.28125 9.359375 Z M 13.804688 9.039062 L 13.546875 8.765625 C 13.566406 8.726562 13.582031 8.691406 13.59375 8.648438 L 13.957031 8.648438 C 13.933594 8.792969 13.882812 8.925781 13.804688 9.039062 Z M 13.59375 8.417969 C 13.585938 8.375 13.570312 8.335938 13.546875 8.300781 L 13.804688 8.027344 C 13.882812 8.140625 13.9375 8.269531 13.957031 8.417969 Z M 13.59375 8.417969 "/>
<path d="M 15.859375 6.773438 L 15.617188 6.523438 L 15.617188 5.753906 C 15.617188 5.550781 15.546875 5.355469 15.417969 5.203125 L 14.523438 4.152344 C 14.515625 3.933594 14.367188 3.75 14.164062 3.710938 C 13.101562 3.496094 9.792969 2.953125 7.179688 3.695312 C 5.5625 4.152344 3.917969 5.078125 3.917969 5.078125 C 3.917969 5.078125 1.0625 5.464844 0.378906 6.40625 C 0.140625 6.734375 0.0390625 7.167969 0.0078125 7.554688 C -0.046875 8.097656 0.289062 8.59375 0.792969 8.714844 L 1.058594 8.777344 C 1.054688 8.761719 1.054688 8.746094 1.050781 8.730469 C 1.042969 8.660156 1.039062 8.59375 1.039062 8.53125 C 1.039062 7.644531 1.71875 6.929688 2.554688 6.929688 C 3.386719 6.929688 4.070312 7.644531 4.070312 8.53125 C 4.070312 8.574219 4.066406 8.621094 4.0625 8.667969 C 4.054688 8.722656 4.050781 8.773438 4.039062 8.828125 L 11.6875 8.84375 C 11.679688 8.808594 11.675781 8.769531 11.671875 8.730469 C 11.664062 8.660156 11.65625 8.59375 11.65625 8.53125 C 11.65625 7.644531 12.335938 6.929688 13.171875 6.929688 C 14.007812 6.929688 14.6875 7.644531 14.6875 8.53125 C 14.6875 8.574219 14.683594 8.621094 14.679688 8.667969 C 14.679688 8.730469 14.664062 8.792969 14.65625 8.851562 L 14.757812 8.851562 L 15.195312 8.597656 C 15.648438 8.335938 15.9375 7.839844 15.960938 7.292969 L 15.964844 7.050781 C 15.972656 6.945312 15.929688 6.84375 15.859375 6.773438 Z M 5.421875 5.1875 L 5.539062 4.695312 C 5.539062 4.695312 7.308594 3.714844 10.273438 3.816406 L 10.273438 5.28125 L 5.523438 5.675781 C 5.523438 5.675781 5.550781 5.363281 5.421875 5.1875 Z M 13.027344 5.050781 L 10.796875 5.238281 L 10.796875 3.847656 C 11.53125 3.90625 12.328125 4.027344 13.183594 4.246094 C 13.273438 4.269531 13.339844 4.339844 13.367188 4.425781 C 13.398438 4.515625 13.378906 4.613281 13.320312 4.6875 Z M 13.027344 5.050781 "/>
</g>
</svg>
