<?xml version="1.0" encoding="UTF-8"?>
<svg xmlns="http://www.w3.org/2000/svg" xmlns:xlink="http://www.w3.org/1999/xlink" viewBox="0 0 15 16" version="1.1" id="Bus" preserveAspectRatio="xMidYMid meet">
<g id="surface1">
<path d="M 3.675781 10.519531 C 2.925781 10.519531 2.320312 11.167969 2.320312 11.972656 C 2.320312 12.777344 2.925781 13.429688 3.675781 13.429688 C 4.421875 13.429688 5.027344 12.777344 5.027344 11.972656 C 5.027344 11.167969 4.421875 10.519531 3.675781 10.519531 Z M 3.675781 12.605469 C 3.347656 12.605469 3.085938 12.324219 3.085938 11.972656 C 3.085938 11.621094 3.347656 11.339844 3.675781 11.339844 C 4 11.339844 4.261719 11.621094 4.261719 11.972656 C 4.261719 12.324219 4 12.605469 3.675781 12.605469 Z M 3.675781 12.605469 "/>
<path d="M 11.617188 10.519531 C 10.871094 10.519531 10.265625 11.167969 10.265625 11.972656 C 10.265625 12.777344 10.871094 13.429688 11.617188 13.429688 C 12.367188 13.429688 12.96875 12.777344 12.96875 11.972656 C 12.96875 11.167969 12.367188 10.519531 11.617188 10.519531 Z M 11.617188 12.605469 C 11.292969 12.605469 11.03125 12.324219 11.03125 11.972656 C 11.03125 11.621094 11.292969 11.339844 11.617188 11.339844 C 11.941406 11.339844 12.207031 11.621094 12.207031 11.972656 C 12.207031 12.324219 11.941406 12.605469 11.617188 12.605469 Z M 11.617188 12.605469 "/>
<path d="M 14.199219 2.449219 L 1.777344 2.449219 C 1.332031 2.449219 0.894531 2.832031 0.808594 3.300781 L 0.160156 7.382812 C 0.0742188 7.851562 0 8.625 0 9.101562 L 0.0429688 11.105469 C 0.0429688 11.582031 0.402344 11.972656 0.847656 11.972656 L 2.078125 11.972656 C 2.078125 11.027344 2.792969 10.257812 3.675781 10.257812 C 4.550781 10.257812 5.269531 11.027344 5.269531 11.972656 L 10.023438 11.972656 C 10.023438 11.027344 10.738281 10.257812 11.617188 10.257812 C 12.496094 10.257812 13.214844 11.027344 13.214844 11.972656 L 14.199219 11.972656 C 14.644531 11.972656 15.007812 11.582031 15.007812 11.105469 L 15.007812 3.316406 C 15.007812 2.84375 14.644531 2.449219 14.199219 2.449219 Z M 3.804688 8.292969 L 1.921875 8.292969 L 2.21875 7.53125 C 2.269531 7.398438 2.214844 7.246094 2.089844 7.191406 C 1.964844 7.136719 1.824219 7.199219 1.773438 7.328125 L 1.394531 8.289062 C 0.691406 8.257812 0.589844 7.984375 0.648438 7.652344 L 0.863281 6.089844 L 3.804688 6.089844 Z M 3.804688 5.132812 L 0.992188 5.132812 L 1.203125 3.613281 C 1.261719 3.257812 1.589844 2.972656 1.917969 2.972656 L 3.804688 2.972656 Z M 7.402344 8.292969 L 4.289062 8.292969 L 4.289062 6.089844 L 7.402344 6.089844 Z M 7.402344 5.132812 L 4.289062 5.132812 L 4.289062 2.972656 L 7.402344 2.972656 Z M 11 8.292969 L 7.886719 8.292969 L 7.886719 6.089844 L 11 6.089844 Z M 11 5.132812 L 7.886719 5.132812 L 7.886719 2.972656 L 11 2.972656 Z M 14.511719 7.640625 C 14.511719 8 14.242188 8.292969 13.90625 8.292969 L 11.488281 8.292969 L 11.488281 6.089844 L 14.511719 6.089844 Z M 14.511719 5.132812 L 11.488281 5.132812 L 11.488281 2.972656 L 13.90625 2.972656 C 14.242188 2.972656 14.511719 3.261719 14.511719 3.621094 Z M 14.511719 5.132812 "/>
</g>
</svg>
