<?xml version="1.0" encoding="UTF-8"?>
<svg xmlns="http://www.w3.org/2000/svg" xmlns:xlink="http://www.w3.org/1999/xlink" viewBox="0 0 16 13" version="1.1" id="其他" preserveAspectRatio="xMidYMid meet">
<g id="surface1">
<path d="M 14.84375 11.59375 L 14.84375 10.53125 L 12.4375 10.53125 L 12.4375 11.59375 C 12.445312 13.472656 14.84375 13.496094 14.84375 11.59375 Z M 14.84375 11.59375 "/>
<path d="M 3.71875 11.59375 L 3.71875 10.53125 L 1.320312 10.53125 L 1.320312 11.59375 C 1.320312 13.496094 3.71875 13.472656 3.71875 11.59375 Z M 3.71875 11.59375 "/>
<path d="M 15.996094 9.585938 L 15.996094 6.320312 C 15.992188 5.179688 15.070312 4.578125 14.546875 4.511719 L 13.234375 1.183594 C 12.992188 0.546875 12.453125 0.0078125 11.4375 0 L 4.546875 0 C 3.539062 0.0078125 3.003906 0.546875 2.753906 1.183594 L 1.441406 4.511719 C 0.917969 4.578125 -0.00390625 5.179688 0 6.320312 L 0 9.585938 C 0 10.121094 0.445312 10.554688 0.988281 10.554688 L 15.007812 10.554688 C 15.554688 10.554688 15.996094 10.121094 15.996094 9.585938 Z M 2.679688 8.160156 C 2.679688 8.160156 2.679688 8.160156 2.675781 8.160156 C 2.0625 8.160156 1.570312 7.660156 1.570312 7.039062 C 1.570312 6.421875 2.058594 5.917969 2.667969 5.917969 C 2.671875 5.917969 2.675781 5.917969 2.679688 5.917969 C 2.679688 5.917969 2.6875 5.917969 2.691406 5.917969 C 3.296875 5.917969 3.789062 6.421875 3.789062 7.039062 C 3.789062 7.660156 3.292969 8.160156 2.679688 8.160156 Z M 8 4.480469 L 3.882812 4.480469 C 3.523438 4.480469 3.273438 4.121094 3.414062 3.789062 L 4.109375 2.183594 C 4.210938 1.929688 4.414062 1.546875 4.851562 1.539062 L 11.132812 1.539062 C 11.5625 1.546875 11.671875 1.785156 11.875 2.183594 L 12.566406 3.789062 C 12.707031 4.121094 12.460938 4.480469 12.101562 4.480469 Z M 13.238281 8.242188 C 13.238281 8.242188 13.238281 8.242188 13.234375 8.242188 C 13.230469 8.242188 13.230469 8.242188 13.230469 8.242188 C 12.617188 8.242188 12.117188 7.742188 12.117188 7.121094 C 12.117188 6.503906 12.613281 6 13.226562 6 C 13.226562 6 13.230469 6 13.238281 6 C 13.242188 6 13.242188 6 13.246094 6 C 13.847656 6 14.339844 6.503906 14.34375 7.121094 C 14.335938 7.742188 13.84375 8.242188 13.238281 8.242188 Z M 13.238281 8.242188 "/>
</g>
</svg>
