<?xml version="1.0" encoding="UTF-8"?>
<svg xmlns="http://www.w3.org/2000/svg" xmlns:xlink="http://www.w3.org/1999/xlink" viewBox="0 0 16 16" version="1.1" id="小巴" preserveAspectRatio="xMidYMid meet">
<g id="surface1">
<path style="stroke:none;fill-rule:evenodd;fill-opacity:1;" d="M 2.148438 10.625 C 2.148438 10 2.414062 9.421875 2.839844 9.109375 C 3.265625 8.792969 3.792969 8.792969 4.222656 9.109375 C 4.648438 9.421875 4.910156 10 4.910156 10.625 L 10.589844 10.625 C 10.589844 10 10.855469 9.421875 11.28125 9.109375 C 11.710938 8.792969 12.238281 8.792969 12.664062 9.109375 C 13.089844 9.421875 13.355469 10 13.355469 10.625 L 15.351562 10.625 C 15.6875 10.625 15.964844 10.277344 15.964844 9.847656 L 15.964844 7.671875 C 15.964844 7.5625 15.953125 7.453125 15.929688 7.351562 L 15.300781 4.566406 C 15.226562 4.230469 14.984375 4 14.710938 4 L 0.765625 4 C 0.683594 4 0.613281 4.085938 0.613281 4.195312 L 0.613281 4.585938 C 0.613281 4.675781 0.664062 4.757812 0.738281 4.777344 C 0.78125 4.785156 0.816406 4.820312 0.839844 4.871094 C 0.859375 4.921875 0.863281 4.980469 0.851562 5.03125 L 0.0546875 7.863281 C 0.0195312 7.988281 0 8.121094 0 8.257812 L 0 10.238281 C 0 10.453125 0.136719 10.625 0.308594 10.625 Z M 0.789062 7.507812 L 2.625 7.507812 C 2.753906 7.507812 2.855469 7.378906 2.855469 7.214844 L 2.855469 5.070312 C 2.855469 4.910156 2.753906 4.78125 2.625 4.78125 L 1.390625 4.78125 C 1.292969 4.78125 1.207031 4.855469 1.171875 4.972656 L 0.570312 7.117188 C 0.546875 7.207031 0.554688 7.304688 0.597656 7.382812 C 0.640625 7.460938 0.710938 7.507812 0.789062 7.507812 Z M 3.484375 7.507812 L 5.097656 7.507812 C 5.171875 7.507812 5.238281 7.464844 5.28125 7.390625 C 5.324219 7.320312 5.339844 7.222656 5.320312 7.136719 L 4.835938 4.992188 C 4.808594 4.867188 4.71875 4.78125 4.617188 4.78125 L 3.484375 4.78125 C 3.355469 4.78125 3.253906 4.910156 3.253906 5.070312 L 3.253906 7.214844 C 3.253906 7.378906 3.355469 7.507812 3.484375 7.507812 Z M 5.976562 7.507812 L 7.523438 7.507812 C 7.59375 7.507812 7.664062 7.464844 7.707031 7.390625 C 7.75 7.320312 7.765625 7.222656 7.746094 7.136719 L 7.261719 4.992188 C 7.234375 4.867188 7.144531 4.78125 7.039062 4.78125 L 5.492188 4.78125 C 5.421875 4.78125 5.351562 4.824219 5.308594 4.894531 C 5.265625 4.96875 5.253906 5.0625 5.273438 5.152344 L 5.753906 7.296875 C 5.78125 7.421875 5.875 7.507812 5.976562 7.507812 Z M 8.402344 7.507812 L 9.949219 7.507812 C 10.019531 7.507812 10.089844 7.464844 10.132812 7.390625 C 10.175781 7.320312 10.191406 7.222656 10.171875 7.136719 L 9.6875 4.992188 C 9.660156 4.867188 9.570312 4.78125 9.464844 4.78125 L 7.917969 4.78125 C 7.847656 4.78125 7.777344 4.824219 7.734375 4.894531 C 7.691406 4.96875 7.675781 5.0625 7.699219 5.152344 L 8.179688 7.296875 C 8.207031 7.421875 8.296875 7.507812 8.402344 7.507812 Z M 10.828125 7.507812 L 12.375 7.507812 C 12.445312 7.507812 12.515625 7.464844 12.558594 7.390625 C 12.601562 7.320312 12.613281 7.222656 12.59375 7.136719 L 12.113281 4.992188 C 12.085938 4.867188 11.996094 4.78125 11.890625 4.78125 L 10.34375 4.78125 C 10.273438 4.78125 10.203125 4.824219 10.160156 4.894531 C 10.117188 4.96875 10.101562 5.0625 10.121094 5.152344 L 10.605469 7.296875 C 10.632812 7.421875 10.722656 7.507812 10.828125 7.507812 Z M 13.253906 7.507812 L 14.800781 7.507812 C 14.871094 7.507812 14.941406 7.464844 14.984375 7.390625 C 15.027344 7.320312 15.039062 7.222656 15.019531 7.136719 L 14.539062 4.992188 C 14.511719 4.867188 14.417969 4.78125 14.316406 4.78125 L 12.769531 4.78125 C 12.695312 4.78125 12.628906 4.824219 12.585938 4.894531 C 12.542969 4.96875 12.527344 5.0625 12.546875 5.152344 L 13.03125 7.296875 C 13.058594 7.421875 13.148438 7.507812 13.253906 7.507812 Z M 13.046875 10.625 C 13.046875 10.140625 12.84375 9.6875 12.511719 9.445312 C 12.179688 9.203125 11.769531 9.203125 11.4375 9.445312 C 11.101562 9.6875 10.898438 10.140625 10.898438 10.625 C 10.898438 11.113281 11.101562 11.566406 11.4375 11.808594 C 11.769531 12.050781 12.179688 12.050781 12.511719 11.808594 C 12.84375 11.566406 13.046875 11.113281 13.046875 10.625 M 4.605469 10.625 C 4.605469 10.140625 4.398438 9.6875 4.066406 9.445312 C 3.734375 9.203125 3.324219 9.203125 2.992188 9.445312 C 2.660156 9.6875 2.457031 10.140625 2.457031 10.625 C 2.457031 11.113281 2.660156 11.566406 2.992188 11.808594 C 3.324219 12.050781 3.734375 12.050781 4.066406 11.808594 C 4.398438 11.566406 4.605469 11.113281 4.605469 10.625 Z M 4.605469 10.625 "/>
</g>
</svg>
