<?xml version="1.0" encoding="UTF-8"?>
<svg xmlns="http://www.w3.org/2000/svg" xmlns:xlink="http://www.w3.org/1999/xlink" viewBox="0 0 16 16" version="1.1" id="田螺车" preserveAspectRatio="xMidYMid meet">
<g id="surface1">
<path d="M 12.40625 12.199219 C 12.40625 11.578125 12.910156 11.074219 13.535156 11.074219 C 14.160156 11.074219 14.667969 11.578125 14.667969 12.199219 C 14.667969 12.824219 14.160156 13.328125 13.535156 13.328125 C 12.910156 13.328125 12.40625 12.824219 12.40625 12.199219 Z M 12.40625 12.199219 "/>
<path d="M 9.417969 12.335938 C 9.417969 11.714844 9.925781 11.207031 10.550781 11.207031 C 11.175781 11.207031 11.679688 11.714844 11.679688 12.335938 C 11.679688 12.957031 11.175781 13.460938 10.550781 13.460938 C 9.925781 13.460938 9.417969 12.957031 9.417969 12.335938 Z M 9.417969 12.335938 "/>
<path d="M 1.902344 12.199219 C 1.902344 11.578125 2.40625 11.074219 3.03125 11.074219 C 3.65625 11.074219 4.164062 11.578125 4.164062 12.199219 C 4.164062 12.824219 3.65625 13.328125 3.03125 13.328125 C 2.40625 13.328125 1.902344 12.824219 1.902344 12.199219 Z M 1.902344 12.199219 "/>
<path d="M 6.101562 6.933594 C 6.101562 6.933594 6.71875 9.417969 7.070312 9.632812 L 6.101562 9.632812 Z M 6.101562 6.933594 "/>
<path d="M 15.875 8.292969 L 15.875 9.601562 L 13.15625 9.601562 L 14.664062 8.292969 Z M 15.875 8.292969 "/>
<path d="M 6.644531 4.242188 C 6.644531 4.242188 10.03125 1.375 15.152344 3.109375 C 15.152344 3.109375 16.382812 4.011719 15.875 6.644531 C 15.875 6.644531 13.859375 9.03125 11.050781 9.515625 L 10.90625 9.601562 L 7.355469 9.601562 C 7.355469 9.601562 6.261719 8.0625 6.234375 5.796875 C 6.234375 5.796875 6.214844 4.882812 6.644531 4.242188 Z M 6.644531 4.242188 "/>
<path d="M 0.335938 9.917969 L 0.335938 7.230469 C 0.335938 6.71875 0.589844 6.265625 0.972656 5.980469 C 1.234375 5.789062 1.550781 5.675781 1.902344 5.675781 L 4.710938 5.675781 L 4.710938 9.917969 L 5.179688 9.917969 L 5.179688 6.007812 L 5.835938 6.007812 L 5.835938 9.917969 L 15.972656 9.917969 L 15.972656 11.875 L 15.320312 11.875 C 15.164062 11.035156 14.425781 10.394531 13.535156 10.394531 L 10.550781 10.394531 C 9.660156 10.394531 8.925781 11.035156 8.769531 11.875 L 4.8125 11.875 C 4.660156 11.035156 3.921875 10.394531 3.03125 10.394531 C 2.140625 10.394531 1.40625 11.035156 1.25 11.875 L 0.0195312 11.875 L 0.0195312 9.917969 Z M 3.320312 8.773438 L 4.164062 8.773438 L 4.164062 6.269531 L 3.320312 6.269531 Z M 3.03125 8.773438 L 3.03125 6.269531 L 1.902344 6.269531 C 1.902344 6.269531 1.015625 6.34375 1.015625 7.050781 L 1.015625 8.773438 Z M 3.03125 8.773438 "/>
</g>
</svg>
