<?xml version="1.0" encoding="UTF-8"?>
<svg xmlns="http://www.w3.org/2000/svg" xmlns:xlink="http://www.w3.org/1999/xlink" viewBox="0 0 16 16" version="1.1" id="貨車" preserveAspectRatio="xMidYMid meet">
<g id="surface1">
<path d="M 6.714844 2.613281 L 15.988281 2.613281 L 15.988281 8.847656 L 6.714844 8.847656 Z M 6.714844 2.613281 "/>
<path d="M 6.050781 4.832031 C 6.050781 4.578125 5.851562 4.371094 5.609375 4.371094 L 1.050781 4.371094 C 0.828125 4.371094 0.644531 4.539062 0.613281 4.765625 L 0.199219 7.804688 C 0.199219 7.824219 0.199219 7.847656 0.199219 7.867188 L 0.199219 9.445312 L 0 9.445312 L 0 11.273438 L 0.949219 11.273438 C 0.90625 11.433594 0.886719 11.597656 0.886719 11.769531 C 0.886719 12.78125 1.675781 13.601562 2.652344 13.601562 C 3.625 13.601562 4.417969 12.78125 4.417969 11.769531 C 4.417969 11.597656 4.394531 11.433594 4.351562 11.273438 L 10.941406 11.273438 C 10.890625 11.433594 10.867188 11.609375 10.867188 11.789062 C 10.867188 12.800781 11.660156 13.621094 12.636719 13.621094 C 13.609375 13.621094 14.402344 12.800781 14.402344 11.789062 C 14.402344 11.609375 14.375 11.433594 14.328125 11.273438 L 15.988281 11.273438 L 15.988281 9.445312 L 6.050781 9.445312 Z M 2.652344 12.660156 C 2.175781 12.660156 1.789062 12.261719 1.789062 11.769531 C 1.789062 11.277344 2.175781 10.875 2.652344 10.875 C 3.125 10.875 3.511719 11.277344 3.511719 11.769531 C 3.511719 12.261719 3.125 12.660156 2.652344 12.660156 Z M 5.164062 6.21875 L 3.792969 7.644531 L 1.117188 7.644531 L 1.4375 5.289062 L 5.164062 5.289062 Z M 12.636719 10.894531 C 13.109375 10.894531 13.496094 11.296875 13.496094 11.789062 C 13.496094 12.28125 13.109375 12.679688 12.636719 12.679688 C 12.160156 12.679688 11.773438 12.28125 11.773438 11.789062 C 11.773438 11.296875 12.160156 10.894531 12.636719 10.894531 Z M 12.636719 10.894531 "/>
</g>
</svg>
