<?xml version="1.0" encoding="UTF-8"?>
<svg xmlns="http://www.w3.org/2000/svg" xmlns:xlink="http://www.w3.org/1999/xlink" viewBox="0 0 16 16" version="1.1"  id="轻型货车" preserveAspectRatio="xMidYMid meet">
<g id="surface1">
<path d="M 6.234375 3.917969 C 5.035156 3.917969 2.746094 6.914062 2.746094 6.914062 C 2.746094 6.914062 1.4375 7.140625 0.582031 7.660156 C -0.273438 8.183594 0.0703125 10.273438 0.0703125 10.273438 L 1.351562 10.273438 C 1.351562 10.277344 1.347656 10.285156 1.347656 10.289062 C 1.347656 11.179688 2.054688 11.902344 2.933594 11.902344 C 3.8125 11.902344 4.523438 11.179688 4.523438 10.289062 C 4.523438 10.285156 4.523438 10.277344 4.523438 10.273438 L 10.800781 10.273438 C 10.800781 10.277344 10.800781 10.285156 10.800781 10.289062 C 10.800781 11.179688 11.507812 11.902344 12.386719 11.902344 C 13.265625 11.902344 13.976562 11.179688 13.976562 10.289062 C 13.976562 10.285156 13.976562 10.277344 13.976562 10.273438 L 16 10.273438 L 16 3.917969 C 15.3125 3.917969 7.433594 3.917969 6.234375 3.917969 Z M 0.664062 8.722656 C 0.585938 8.722656 0.507812 8.707031 0.4375 8.683594 C 0.523438 8.269531 0.675781 7.988281 0.902344 7.851562 C 1.011719 7.785156 1.140625 7.722656 1.28125 7.65625 C 1.351562 7.765625 1.382812 7.886719 1.382812 8.011719 C 1.382812 8.40625 1.058594 8.722656 0.664062 8.722656 Z M 2.933594 10.996094 C 2.550781 10.996094 2.242188 10.679688 2.242188 10.289062 C 2.242188 9.898438 2.554688 9.582031 2.933594 9.582031 C 3.320312 9.582031 3.632812 9.902344 3.632812 10.289062 C 3.632812 10.679688 3.320312 10.996094 2.933594 10.996094 Z M 8.269531 6.394531 L 4.34375 6.394531 C 4.34375 6.394531 5.742188 4.59375 6.40625 4.59375 C 7.070312 4.59375 8.269531 4.59375 8.269531 4.59375 Z M 12.386719 10.996094 C 12.003906 10.996094 11.695312 10.679688 11.695312 10.289062 C 11.695312 9.898438 12.007812 9.582031 12.386719 9.582031 C 12.773438 9.582031 13.085938 9.902344 13.085938 10.289062 C 13.085938 10.679688 12.773438 10.996094 12.386719 10.996094 Z M 15.390625 9.324219 L 14.792969 9.324219 L 14.792969 6.441406 L 15.390625 6.441406 Z M 15.390625 9.324219 "/>
</g>
</svg>
